:version 1.10
:name ASF
:units
  mass 1
  length 1
  angle deg
:documentation
  ASF file generated by Kaydara
:root
  axis xyz
  order  tx ty tz rx ry rz
  position 0 0 0
  orientation 0 0 0
:bonedata
  begin
    id 1
    name RightUpLegDummy
    direction -0.718183 -0.695806 0.00816078
    length 4.904
    axis 0 0 0 xyz
  end
  begin
    id 2
    name RightUpLeg
    direction 3.53989e-006 -0.995788 0.0916897
    length 17.4976
    axis -3.49089 -0.000906621 0.000287158 xyz
    dof rx ry rz
  end
  begin
    id 3
    name RightLeg
    direction 0.00371093 -0.995096 -0.0988418
    length 16.5821
    axis 3.68512 0.0193738 -0.131023 xyz
    dof rx ry rz
  end
  begin
    id 4
    name RightFoot
    direction 0.000791514 -0.46099 0.887405
    length 3.77069
    axis 4.84075e-005 -0.120479 -0.188788 xyz
    dof rx ry rz
  end
  begin
    id 5
    name RightToes
    direction 0.00124746 -0.014064 0.9999
    length 3.85082
    axis 0.00048216 0.542163 -0.142577 xyz
    dof rx ry rz
  end
  begin
    id 6
    name SpineDummy
    direction 8.3039e-015 1 4.57515e-016
    length 4.6813
    axis 0 0 0 xyz
  end
  begin
    id 7
    name Spine
    direction -4.63632e-008 0.999988 0.00495137
    length 10.1015
    axis -0.00138897 0.000121419 3.25764e-006 xyz
    dof rx ry rz
  end
  begin
    id 8
    name Spine1
    direction 0 0 0
    length 0
    axis -0.00138896 0.000121452 2.39764e-006 xyz
    dof rx ry rz
  end
  begin
    id 9
    name HEadDummy
    direction -3.91456e-008 0.999999 0.00127422
    length 3.43865
    axis -0.00138896 0.000121452 2.39764e-006 xyz
  end
  begin
    id 10
    name HEad
    direction -0.0222688 0.980941 0.193023
    length 5.12695
    axis -0.00138895 0.000121452 2.39764e-006 xyz
    dof rx ry rz
  end
  begin
    id 11
    name LeftShoulder1Dummy
    direction 0.998891 -0.0402508 -0.0244456
    length 3.5433
    axis -0.00138896 0.000121452 2.39764e-006 xyz
  end
  begin
    id 12
    name LeftShoulder1
    direction 0.99951 -0.000327743 0.0313091
    length 4.05031
    axis -0.00138896 0.000121452 2.39764e-006 xyz
    dof rx ry rz
  end
  begin
    id 13
    name LeftArm
    direction 0.998561 -0.00100054 -0.0536182
    length 10.3537
    axis -23.1894 0.134784 0.96751 xyz
    dof rx ry rz
  end
  begin
    id 14
    name LeftForeArm
    direction 0.998903 0.00866434 0.046012
    length 8.70632
    axis -9.91835 -0.06569 -0.177792 xyz
    dof rx ry rz
  end
  begin
    id 15
    name LeftHand
    direction 0.992938 -0.0411636 0.11126
    length 5.32135
    axis -0.00960227 -0.00340091 0.185174 xyz
    dof rx ry rz
  end
  begin
    id 16
    name RightShoulderDummy
    direction -0.998891 -0.0402509 -0.0244414
    length 3.5433
    axis -0.00138896 0.000121452 2.39764e-006 xyz
  end
  begin
    id 17
    name RightShoulder
    direction -0.99951 -0.000327827 0.0313133
    length 4.05031
    axis 0.215806 0.000203644 -0.00680151 xyz
    dof rx ry rz
  end
  begin
    id 18
    name RightArm
    direction -0.998573 -0.000999583 -0.053403
    length 10.3947
    axis -23.2009 -0.134239 -0.9641 xyz
    dof rx ry rz
  end
  begin
    id 19
    name RightForeArm
    direction -0.998898 0.00868026 0.0461306
    length 8.68355
    axis -9.92322 0.0658061 0.178869 xyz
    dof rx ry rz
  end
  begin
    id 20
    name RightHand
    direction -0.992843 -0.0414603 0.112003
    length 5.28593
    axis -0.00960634 0.00330671 -0.185226 xyz
    dof rx ry rz
  end
  begin
    id 21
    name LeftUpLegDummy
    direction 0.718183 -0.695806 0.00816078
    length 4.904
    axis 0 0 0 xyz
  end
  begin
    id 22
    name LeftUpLeg
    direction -6.8115e-006 -0.995793 0.0916336
    length 17.4976
    axis -3.48766 0.00143441 -0.000523914 xyz
    dof rx ry rz
  end
  begin
    id 23
    name LeftLeg
    direction -0.00601357 -0.995091 -0.0987824
    length 16.5821
    axis 3.68177 -0.00654038 -0.00028478 xyz
    dof rx ry rz
  end
  begin
    id 24
    name LeftFoot
    direction -0.00417578 -0.460984 0.887399
    length 3.77069
    axis 1.87232e-006 4.66002e-005 -8.1837e-006 xyz
    dof rx ry rz
  end
  begin
    id 25
    name LeftToes
    direction 0.00818058 -0.00485161 0.999955
    length 3.85048
    axis 1.06246e-005 4.65855e-005 -8.18502e-006 xyz
    dof rx ry rz
  end
:hierarchy
  begin
    root RightUpLegDummy SpineDummy LeftUpLegDummy
    RightUpLegDummy RightUpLeg
    RightUpLeg RightLeg
    RightLeg RightFoot
    RightFoot RightToes
    SpineDummy Spine
    Spine Spine1
    Spine1 HEadDummy LeftShoulder1Dummy RightShoulderDummy
    HEadDummy HEad
    LeftShoulder1Dummy LeftShoulder1
    LeftShoulder1 LeftArm
    LeftArm LeftForeArm
    LeftForeArm LeftHand
    RightShoulderDummy RightShoulder
    RightShoulder RightArm
    RightArm RightForeArm
    RightForeArm RightHand
    LeftUpLegDummy LeftUpLeg
    LeftUpLeg LeftLeg
    LeftLeg LeftFoot
    LeftFoot LeftToes
  end

:SAMPLES-PER-SECOND 30
:FRAME-RANGE 1-2009
:FULLY-SPECIFIED
:DEGREES
63
root  -5.19336 38.0497 -117.159 2.48745 -24.167 -1.28012
RightUpLeg  -26.7 6.42077 -2.36444
RightLeg  7.64103 10.9941 -0.235057
RightFoot  -7.31617 -0.366574 8.99454
RightToes  2.96424e-010 1.2921e-014 -6.02303e-014
Spine  -7.97275 -9.57362 -4.27606
Spine1  11.4205 -11.3358 5.57678
HEad  24.8844 -5.78542 -3.87067
LeftShoulder1  2.1459 -4.74694 -20.4819
LeftArm  -0.933776 3.06432 -44.5302
LeftForeArm  37.1575 4.99886 -13.2359
LeftHand  -0.0295113 5.42425 2.23458
RightShoulder  0.59048 -1.2749 22.5582
RightArm  -35.7423 14.0184 18.4223
RightForeArm  38.9551 -5.35361 -1.65375
RightHand  -0.461182 -3.05346 -22.5328
LeftUpLeg  8.44937 -0.382952 -7.76052
LeftLeg  16.0029 0.704026 2.34285
LeftFoot  -22.4663 0.732805 6.12976
LeftToes  -1.2485e-010 1.20979e-011 -1.0929e-011
64
root  -5.74442 37.9945 -115.935 2.81825 -22.7476 -1.77519
RightUpLeg  -25.9978 8.6258 -2.92101
RightLeg  10.1121 7.58154 -0.229911
RightFoot  -6.88569 -0.457159 10.5156
RightToes  2.96424e-010 1.2921e-014 -6.02303e-014
Spine  -8.03951 -9.45688 -3.57519
Spine1  11.4827 -11.4085 5.7615
HEad  25.4364 -4.94568 -4.11953
LeftShoulder1  2.24361 -5.08843 -20.5682
LeftArm  -1.2278 1.39027 -45.3195
LeftForeArm  37.3133 6.09007 -13.1733
LeftHand  -0.0249365 5.49813 2.48985
RightShoulder  0.514474 -1.45451 21.1189
RightArm  -32.8706 10.1717 14.4732
RightForeArm  40.6859 -5.5619 -0.247992
RightHand  -0.387953 -3.4708 -22.9976
LeftUpLeg  10.0205 -2.20088 -7.34194
LeftLeg  17.0725 1.08697 2.23043
LeftFoot  -21.9867 0.543005 4.40704
LeftToes  -1.2485e-010 1.20979e-011 -1.0929e-011
65
root  -6.22211 38.1263 -114.737 3.69648 -21.5601 -3.06605
RightUpLeg  -25.1217 7.40625 -1.35815
RightLeg  10.6261 8.77899 -0.119281
RightFoot  -0.950149 -1.24235 13.5328
RightToes  2.96424e-010 1.2921e-014 -6.02303e-014
Spine  -8.27388 -9.1176 -0.994552
Spine1  11.7235 -11.1784 5.35904
HEad  25.7285 -4.22131 -4.4525
LeftShoulder1  2.16286 -4.79616 -20.5328
LeftArm  -1.95862 -0.363966 -46.6746
LeftForeArm  37.1209 6.99711 -12.9197
LeftHand  -0.0250948 5.49517 2.4348
RightShoulder  0.455116 -1.59918 19.8454
RightArm  -30.0143 5.33647 10.713
RightForeArm  43.7 -5.71378 1.02294
RightHand  -0.283045 -3.92986 -21.8604
LeftUpLeg  10.7917 -5.69913 -6.50814
LeftLeg  18.7251 3.16145 1.95326
LeftFoot  -20.0608 0.267595 1.92992
LeftToes  -1.2485e-010 1.20979e-011 -1.0929e-011
66
root  -6.73925 38.2125 -113.481 4.63937 -21.42 -4.29818
RightUpLeg  -24.5495 5.75112 -0.0693808
RightLeg  12.2726 9.48942 1.25288
RightFoot  0.532397 -1.6405 15.7196
RightToes  2.96424e-010 1.2921e-014 -6.02303e-014
Spine  -8.90682 -8.41647 1.44525
Spine1  12.2273 -10.5073 4.7581
HEad  25.4424 -3.30661 -4.83356
LeftShoulder1  2.16906 -4.71718 -20.8964
LeftArm  -2.97568 -1.09022 -47.9106
LeftForeArm  36.0486 6.73517 -12.467
LeftHand  -0.0285212 5.27774 2.71182
RightShoulder  0.454586 -1.54165 18.8789
RightArm  -27.9025 0.861692 7.67801
RightForeArm  47.4048 -5.74313 1.72485
RightHand  -0.207082 -4.27973 -20.7333
LeftUpLeg  9.98927 -5.68821 -5.03692
LeftLeg  22.9977 2.87101 1.67693
LeftFoot  -17.26 0.0335472 -1.3531
LeftToes  -1.2485e-010 1.20979e-011 -1.0929e-011
67
root  -7.21805 38.3954 -112.375 5.29381 -21.6677 -5.08085
RightUpLeg  -23.4084 5.32319 1.11703
RightLeg  13.1697 10.3074 1.73536
RightFoot  -0.354415 -1.43155 14.7838
RightToes  2.96424e-010 1.2921e-014 -6.02303e-014
Spine  -9.07225 -7.96319 3.13017
Spine1  12.9815 -10.007 4.26032
HEad  25.5915 -1.76826 -4.75961
LeftShoulder1  2.10052 -4.49046 -20.7966
LeftArm  -3.34255 -0.76203 -49.0186
LeftForeArm  34.1711 5.5197 -12.2864
LeftHand  -0.0413869 4.69654 3.15828
RightShoulder  0.552139 -1.11847 18.4271
RightArm  -27.2667 -3.11657 6.50866
RightForeArm  50.6586 -5.60711 1.43548
RightHand  -0.218151 -4.14765 -19.5193
LeftUpLeg  7.40483 -3.23324 -3.11417
LeftLeg  29.4672 0.764128 0.81731
LeftFoot  -11.8837 0.0499826 -4.48172
LeftToes  -1.2485e-010 1.20979e-011 -1.0929e-011
68
root  -7.6651 38.575 -111.361 5.88716 -21.5409 -5.56043
RightUpLeg  -22.4307 4.79788 2.15547
RightLeg  14.0522 10.9276 2.01081
RightFoot  -0.813074 -1.08068 11.6314
RightToes  2.96424e-010 1.2921e-014 -6.02303e-014
Spine  -9.21884 -7.78133 4.62633
Spine1  13.7548 -9.61773 3.55977
HEad  26.2147 -0.400412 -4.37897
LeftShoulder1  1.92109 -3.82235 -20.8029
LeftArm  -2.56604 -0.956624 -49.5494
LeftForeArm  32.5852 4.58008 -12.5306
LeftHand  -0.0516853 4.24242 3.18321
RightShoulder  0.55056 -1.10814 18.2205
RightArm  -26.6592 -7.70232 7.38162
RightForeArm  51.9875 -5.5172 1.12721
RightHand  -0.296101 -3.60622 -18.7001
LeftUpLeg  3.10361 -0.323691 -0.9618
LeftLeg  37.7109 -1.35456 -0.749969
LeftFoot  -4.87374 0.471821 -7.8263
LeftToes  -1.2485e-010 1.20979e-011 -1.0929e-011
